<?xml version="1.0" encoding="UTF-8" standalone="no"?>
<!-- Generator: Adobe Illustrator 16.0.0, SVG Export Plug-In . SVG Version: 6.00 Build 0)  -->

<svg
   xmlns:dc="http://purl.org/dc/elements/1.1/"
   xmlns:cc="http://creativecommons.org/ns#"
   xmlns:rdf="http://www.w3.org/1999/02/22-rdf-syntax-ns#"
   xmlns:svg="http://www.w3.org/2000/svg"
   xmlns="http://www.w3.org/2000/svg"
   xmlns:sodipodi="http://sodipodi.sourceforge.net/DTD/sodipodi-0.dtd"
   xmlns:inkscape="http://www.inkscape.org/namespaces/inkscape"
   version="1.1"
   id="svg2"
   sodipodi:docname="infojr-lb-flat.svg"
   inkscape:version="0.91 r"
   x="0px"
   y="0px"
   width="647.592px"
   height="265.259px"
   viewBox="34.197 309.039 647.592 265.259"
   enable-background="new 34.197 309.039 647.592 265.259"
   xml:space="preserve"><metadata
     id="metadata13"><rdf:RDF><cc:Work
         rdf:about=""><dc:format>image/svg+xml</dc:format><dc:type
           rdf:resource="http://purl.org/dc/dcmitype/StillImage" /><dc:title></dc:title></cc:Work></rdf:RDF></metadata><defs
     id="defs11" /><sodipodi:namedview
     id="base"
     inkscape:window-y="0"
     inkscape:window-x="0"
     inkscape:window-height="716"
     inkscape:window-width="1366"
     inkscape:current-layer="layer1"
     inkscape:document-units="px"
     inkscape:pageshadow="2"
     inkscape:pageopacity="0.0"
     inkscape:window-maximized="1"
     inkscape:cy="180.25775"
     inkscape:cx="293.84426"
     inkscape:zoom="0.71230469"
     borderopacity="1.0"
     bordercolor="#666666"
     showgrid="false"
     pagecolor="#ffffff" /><g
     id="layer1"
     inkscape:label="Camada 1"
     inkscape:groupmode="layer"><path
       id="path72"
       inkscape:connector-curvature="0"
       fill="#85B03D"
       d="M297.51,377.235c-1.634-91.409-259.464-92.06-263.236,4.907   C31.875,443.806,86.52,484.41,87.687,538.847c1.065,49.668,163.689,45.781,160.311-3.113   C243.029,463.822,292.293,431.972,297.51,377.235" /><path
       id="path124"
       inkscape:connector-curvature="0"
       fill="#FFFFFF"
       d="M158.632,386.875h11.09c12.199,0,22.18,9.395,22.18,20.879   V551.06c0,11.482-9.98,20.879-22.18,20.879h-11.09c-12.199,0-22.18-9.396-22.18-20.879V407.754   C136.453,396.27,146.434,386.875,158.632,386.875" /><path
       id="path126"
       inkscape:connector-curvature="0"
       fill="#FFFFFF"
       d="M164.177,314.125c17.032,0,30.844,14.47,30.844,32.313   c0,17.842-13.812,32.313-30.844,32.313c-17.031,0-30.844-14.47-30.844-32.313C133.333,328.595,147.146,314.125,164.177,314.125" /><path
       id="path128"
       inkscape:connector-curvature="0"
       fill="#656263"
       d="M361.012,513.697h5.081v22.164   c0,3.848-0.437,6.91-1.313,9.18c-0.875,2.268-2.446,4.107-4.724,5.527c-2.277,1.428-5.26,2.135-8.957,2.135   c-3.589,0-6.536-0.617-8.813-1.857c-2.286-1.232-3.92-3.027-4.894-5.377c-0.982-2.348-1.464-5.545-1.464-9.607v-22.164h5.072   v22.137c0,3.33,0.313,5.787,0.928,7.357c0.616,1.58,1.688,2.795,3.188,3.652c1.509,0.857,3.357,1.287,5.536,1.287   c3.733,0,6.394-0.85,7.983-2.545c1.58-1.688,2.375-4.939,2.375-9.752V513.697L361.012,513.697z M443.833,552.05v-38.354h25.879   v4.527h-20.798v11.877h17.994v4.527h-17.994v17.422H443.833L443.833,552.05z M545.121,552.05v-38.354h14.395   c2.93,0,5.277,0.393,7.046,1.16c1.777,0.777,3.161,1.975,4.161,3.59c1,1.607,1.509,3.295,1.509,5.063   c0,1.635-0.446,3.18-1.339,4.627c-0.884,1.445-2.232,2.615-4.027,3.508c2.321,0.68,4.099,1.84,5.349,3.475   c1.25,1.643,1.875,3.58,1.875,5.814c0,1.793-0.384,3.463-1.143,5.008s-1.696,2.734-2.813,3.572   c-1.116,0.84-2.518,1.465-4.196,1.893c-1.679,0.43-3.742,0.645-6.188,0.645H545.121L545.121,552.05z M550.202,529.814h8.296   c2.241,0,3.857-0.15,4.84-0.445c1.286-0.385,2.259-1.018,2.911-1.912c0.651-0.893,0.982-2.008,0.982-3.348   c0-1.27-0.304-2.395-0.911-3.357c-0.616-0.975-1.491-1.635-2.616-1.992c-1.134-0.357-3.081-0.535-5.841-0.535h-7.661V529.814   L550.202,529.814z M550.202,547.523h9.546c1.643,0,2.795-0.063,3.456-0.18c1.169-0.213,2.143-0.563,2.929-1.053   c0.786-0.482,1.429-1.197,1.938-2.125c0.5-0.939,0.759-2.01,0.759-3.232c0-1.43-0.365-2.672-1.098-3.734   c-0.732-1.053-1.75-1.795-3.055-2.223c-1.294-0.42-3.169-0.635-5.607-0.635h-8.867V547.523L550.202,547.523z M645.891,552.05   l14.734-38.354h5.465l15.699,38.354h-5.787l-4.474-11.619H655.49l-4.206,11.619H645.891z M656.955,536.298h13.011l-4.01-10.617   c-1.215-3.225-2.126-5.877-2.715-7.957c-0.491,2.465-1.179,4.902-2.071,7.33L656.955,536.298z"
       style="fill:#ffffff;fill-opacity:1" /><path
       id="path130"
       inkscape:connector-curvature="0"
       fill="#231F20"
       stroke="#231F20"
       stroke-width="0.27"
       stroke-miterlimit="22.9256"
       d="   M351.295,483.16H336.06v-85.742h15.235V483.16z M353.243,372.261c0,3.012-0.886,5.433-2.657,7.293s-4.134,2.805-7.086,2.805   c-2.775,0-5.049-0.944-6.851-2.834c-1.801-1.89-2.716-4.311-2.716-7.263c0-2.894,0.915-5.315,2.745-7.234   c1.831-1.919,4.104-2.864,6.821-2.864c2.893,0,5.256,0.945,7.057,2.835S353.243,369.309,353.243,372.261L353.243,372.261z    M373.616,483.16v-62.889c0-6.083-0.236-13.7-0.709-22.853h13.464l0.709,12.224h0.354c5.314-9.212,13.345-13.818,24.093-13.818   c7.559,0,13.7,2.835,18.424,8.533c4.725,5.698,7.086,13.907,7.086,24.595v54.209h-15.235v-52.082c0-15-5.196-22.5-15.589-22.5   c-4.901,0-9.006,2.037-12.342,6.112c-3.337,4.075-5.02,9.36-5.02,15.854v52.615H373.616L373.616,483.16z M476.721,483.16h-15.235   v-74.227h-11.338v-11.515h11.338v-4.606c0-8.031,1.21-14.674,3.602-19.93c2.392-5.256,5.729-9.153,10.039-11.692   s9.094-3.809,14.35-3.809c4.606,0,8.681,0.768,12.224,2.303l-2.126,11.692c-2.539-1.063-5.433-1.595-8.681-1.595   c-9.448,0-14.172,7.559-14.172,22.676v4.961h18.069v11.515h-18.069V483.16L476.721,483.16z M570.081,439.757   c0,9.389-1.506,17.449-4.547,24.211s-7.352,11.93-12.903,15.473c-5.551,3.543-11.604,5.314-18.158,5.314   c-10.393,0-18.808-3.957-25.244-11.84c-6.438-7.885-9.655-18.631-9.655-32.271c0-14.35,3.425-25.422,10.246-33.188   c6.819-7.765,15.383-11.633,25.717-11.633c10.393,0,18.748,3.927,25.067,11.81C566.922,415.517,570.081,426.234,570.081,439.757   L570.081,439.757z M514.809,440.289c0,9.33,1.83,17.125,5.462,23.385s8.415,9.389,14.38,9.389c5.964,0,10.776-3.188,14.408-9.537   c3.632-6.348,5.433-14.143,5.433-23.414c0-9.152-1.712-16.889-5.167-23.177c-3.454-6.289-8.297-9.418-14.497-9.418   c-6.318,0-11.22,3.1-14.733,9.3C516.58,423.017,514.809,430.841,514.809,440.289L514.809,440.289z"
       style="fill:#ffffff;fill-opacity:1;stroke:#ffffff;stroke-opacity:1" /><path
       id="path132"
       inkscape:connector-curvature="0"
       fill="#231F20"
       d="M586.573,517.72l-1.771-12.045   c4.665-0.533,8.474-1.803,11.427-3.811c2.952-2.008,5.02-5.195,6.17-9.537c1.152-4.34,1.713-11.869,1.713-22.615v-74.229h15.235   v79.188c0,12.992-1.594,22.264-4.813,27.844s-7.44,9.479-12.666,11.691C596.642,516.421,591.533,517.603,586.573,517.72   L586.573,517.72z M621.296,370.328c0,2.953-0.886,5.374-2.688,7.263c-1.801,1.89-4.163,2.834-7.057,2.834   c-2.775,0-5.049-0.974-6.85-2.893c-1.802-1.92-2.717-4.311-2.717-7.205c0-2.953,0.915-5.374,2.746-7.263s4.163-2.835,6.997-2.835   c2.835,0,5.139,0.945,6.909,2.835C620.41,364.954,621.296,367.375,621.296,370.328L621.296,370.328z M641.137,481.226v-61.118   c0-6.909-0.236-15.117-0.708-24.625h13.464l0.708,15.058h0.532c1.771-5.138,4.576-9.212,8.414-12.194   c3.839-2.982,7.942-4.458,12.313-4.458l3.721,0.177v15.059c-0.65-0.236-2.008-0.354-4.075-0.354c-5.255,0-9.743,2.185-13.493,6.555   c-3.75,4.37-5.64,10.866-5.64,19.487v46.414H641.137L641.137,481.226z"
       style="stroke:#ffffff;stroke-opacity:1;fill:#ffffff;fill-opacity:1" /></g></svg>